<svg width="20" height="21" viewBox="0 0 20 21" fill="none" xmlns="http://www.w3.org/2000/svg">
<path d="M10.0016 1.76085C4.97536 1.76085 0.730008 6.00621 0.730008 11.0324C0.730008 16.0587 4.97536 20.304 10.0016 20.304C15.0278 20.304 19.2732 16.0587 19.2732 11.0324C19.2732 6.00621 15.0278 1.76085 10.0016 1.76085ZM10.0016 18.2437C6.0931 18.2437 2.79036 14.9409 2.79036 11.0324C2.79036 7.12395 6.0931 3.8212 10.0016 3.8212C13.9101 3.8212 17.2128 7.12395 17.2128 11.0324C17.2128 14.9409 13.9101 18.2437 10.0016 18.2437Z" fill="#37313C"/>
<path d="M11.0318 10.0023V5.88156H8.97141V12.0626H15.1525V10.0023H11.0318Z" fill="#37313C"/>
<path d="M15.4449 1.45897L16.8997 0L20 3.09145L18.5452 4.55042L15.4449 1.45897Z" fill="#37313C"/>
<path d="M4.53951 1.45902L1.45897 4.54839L0 3.09359L3.08054 0.00422012L4.53951 1.45902Z" fill="#37313C"/>
</svg>
